<svg xmlns="http://www.w3.org/2000/svg" viewBox="0 0 64 64">
  <defs>
    <linearGradient id="bg" x1="0" y1="0" x2="1" y2="1">
      <stop offset="0%" stop-color="#0f766e" />
      <stop offset="100%" stop-color="#0a4d44" />
    </linearGradient>
  </defs>
  <rect width="64" height="64" rx="14" fill="url(#bg)" />
  <path
    d="M33 11c2 2 1 5 3 7 1 2 4 3 5 6 1 3-1 5-1 8 0 3 3 5 3 8-1 3-4 4-5 7-1 2 0 5-2 7-2 2-6 2-9 1-3-2-4-5-6-8-1-2-4-3-4-6 0-3 3-5 3-8 0-3-2-5-1-8 1-3 4-4 6-6 2-2 2-5 4-7 1-1 3-1 4-1z"
    fill="#f4df9b"
  />
  <circle cx="39" cy="23" r="2.4" fill="#34e0a1" />
  <path d="M15 49h34v2.5H15z" fill="#f4df9b" opacity=".9" />
</svg>
